<?xml version="1.0" encoding="UTF-8"?>
<svg width="500" height="500" xmlns="http://www.w3.org/2000/svg">
  <defs>
    <linearGradient id="grad" x1="0%" y1="0%" x2="100%" y2="100%">
      <stop offset="0%" style="stop-color:rgb(99,102,241);stop-opacity:0.8" />
      <stop offset="100%" style="stop-color:rgb(168,85,247);stop-opacity:0.8" />
    </linearGradient>
  </defs>
  
  <!-- Background -->
  <rect width="500" height="500" fill="url(#grad)" />
  
  <!-- Silhouette of a person -->
  <g transform="translate(250, 300) scale(2)">
    <path 
      d="M0,-50 
         C-27.6142375,-50 -50,-27.6142375 -50,0 
         C-50,27.6142375 -27.6142375,50 0,50 
         C27.6142375,50 50,27.6142375 50,0 
         C50,-27.6142375 27.6142375,-50 0,-50 Z 
         M0,20 
         C-11.0457,20 -20,11.0457 -20,0 
         C-20,-11.0457 -11.0457,-20 0,-20 
         C11.0457,-20 20,-11.0457 20,0 
         C20,11.0457 11.0457,20 0,20 Z" 
      fill="rgba(255,255,255,0.2)" 
    />
  </g>
  
  <!-- Text placeholder -->
  <text 
    x="50%" 
    y="90%" 
    text-anchor="middle" 
    fill="white" 
    font-family="Arial, sans-serif" 
    font-size="20" 
    font-weight="bold"
  >
    Your Photo Here
  </text>
</svg>
